# xmcd
#
# Track frame offsets: 
#        182
#        11680
#        22720
#        38805
#        51092
#        62702
#        74690
#        87120
#        97715
#        108340
#        121315
#        131185
#        140802
#        151762
#        163172
#        174062
#        190237
#        202055
#        215870
#        228482
#        241310
#        255790
#        269507
#        283597
#
# Disc length: 3930 seconds
#
# Revision: 1
# Processed by: cddbd v1.5.2PL0 Copyright (c) Steve Scherf et al.
# Submitted via: ExactAudioCopy v0.95b3
#
DISCID=520f5818
DTITLE=Various Artist - I Love You Because (24 Country Love Songs)
DYEAR=1997
DGENRE=Country
TTITLE0=Hank Williams - Baby We're Really In Love
TTITLE1=Buck Owens - My Heart Skips A Beat
TTITLE2=Ernest Tubb - I Love You Because (live)
TTITLE3=Lynn Anderson - Stand By Yours Man
TTITLE4=Conway Twitty - I Love You More Today
TTITLE5=Johnny Cash - You're The Nearest Thing To Heaven
TTITLE6=George Jones - If My Heart Had Windows
TTITLE7=Patsy Cline - I Don't Wanta
TTITLE8=Merle Haggard - Slowly Byt Surely
TTITLE9=Faron Young - Love Me Tender
TTITLE10=David Houston - You Mean The World To Me
TTITLE11=Anne Murray - Some Birds
TTITLE12=Ferlin Husky - A Fallen Star
TTITLE13=Webb Pierce - Slowly
TTITLE14=Jim Reeves - Then I'll Stop Loving You
TTITLE15=Norma Jean - Old Flames Can't Hold A Candle To You
TTITLE16=Tommy Overstreet - Heaven Is My Woman's Love
TTITLE17=Bobby Rice - You Lay So Easy On My Mind
TTITLE18=Alabama - I Go On Loving You
TTITLE19=Billie Joe Spears - Dallas
TTITLE20=Freddy Fender - Since I Met You Baby
TTITLE21=Jim Weatherly - I'll Still Love You
TTITLE22=Charlie Rich - On My Kness
TTITLE23=Bobby Bare - Please Don't Tell Me How The Story Ends
EXTD=24 Contry Love Songs
EXTT0=
EXTT1=
EXTT2=
EXTT3=
EXTT4=
EXTT5=
EXTT6=
EXTT7=
EXTT8=
EXTT9=
EXTT10=
EXTT11=
EXTT12=
EXTT13=
EXTT14=
EXTT15=
EXTT16=
EXTT17=
EXTT18=
EXTT19=
EXTT20=
EXTT21=
EXTT22=
EXTT23=
PLAYORDER=
